<svg viewBox="0 0 16 16" xmlns="http://www.w3.org/2000/svg" xmlns:xlink="http://www.w3.org/1999/xlink" width="16.000000" height="16.000000" fill="none" id="chats">
	<rect id="chat" width="16.000000" height="16.000000" x="0.000000" y="0.000000" fill="rgb(255,255,255)" fill-opacity="0" />
	<path id="Vector" d="M12 5.34375L12 4L4 4L4 5.34375L12 5.34375ZM9.34375 9.34375L9.34375 8L4 8L4 9.34375L9.34375 9.34375ZM4 6L4 7.34375L12 7.34375L12 6L4 6ZM13.3438 1.34375C13.6979 1.34375 14 1.47917 14.25 1.75C14.5208 2 14.6562 2.30208 14.6562 2.65625L14.6562 10.6562C14.6562 11.0104 14.5208 11.3229 14.25 11.5938C14 11.8646 13.6979 12 13.3438 12L4 12L1.34375 14.6562L1.34375 2.65625C1.34375 2.30208 1.46875 2 1.71875 1.75C1.98958 1.47917 2.30208 1.34375 2.65625 1.34375L13.3438 1.34375Z" fill="currentColor" fill-rule="nonzero" />
</svg>
