<svg viewBox="0 0 18 18" xmlns="http://www.w3.org/2000/svg" xmlns:xlink="http://www.w3.org/1999/xlink" width="18.000000" height="18.000000" fill="none" customFrame="#000000" id="upload">
	<path id="Icon" d="M10.5117 9.73828L12.7617 9.73828L9 6.01172L5.23828 9.73828L7.48828 9.73828L7.48828 12.7617L10.5117 12.7617L10.5117 9.73828ZM14.5195 7.52344C15.4805 7.59375 16.3008 7.99219 16.9805 8.71875C17.6602 9.42188 18 10.2656 18 11.25C18 12.2812 17.625 13.1719 16.875 13.9219C16.1484 14.6484 15.2695 15.0117 14.2383 15.0117L4.5 15.0117C3.25781 15.0117 2.19141 14.5781 1.30078 13.7109C0.433594 12.8203 0 11.7539 0 10.5117C0 9.41016 0.386719 8.42578 1.16016 7.55859C1.95703 6.66797 2.90625 6.16406 4.00781 6.04688C4.5 5.13281 5.19141 4.39453 6.08203 3.83203C6.97266 3.26953 7.94531 2.98828 9 2.98828C10.2656 2.98828 11.4375 3.43359 12.5156 4.32422C13.6172 5.21484 14.2852 6.28125 14.5195 7.52344Z" fill="rgb(255,255,255)" fill-rule="nonzero" />
</svg>
